<?xml version="1.0" encoding="UTF-8"?>
<svg xmlns="http://www.w3.org/2000/svg" xmlns:xlink="http://www.w3.org/1999/xlink" width="30px" height="30px" viewBox="0 0 30 30" version="1.1">
<defs>
<linearGradient id="linear0" gradientUnits="userSpaceOnUse" x1="7.534" y1="7.534" x2="27.557" y2="27.557" gradientTransform="matrix(0.625,0,0,0.625,0,0)">
<stop offset="0" style="stop-color:rgb(0.784314%,4.705882%,33.333333%);stop-opacity:1;"/>
<stop offset="0.443" style="stop-color:rgb(0%,0%,0%);stop-opacity:1;"/>
<stop offset="1" style="stop-color:rgb(0.784314%,4.705882%,33.333333%);stop-opacity:1;"/>
</linearGradient>
<linearGradient id="linear1" gradientUnits="userSpaceOnUse" x1="27.373" y1="27.373" x2="40.507" y2="40.507" gradientTransform="matrix(0.625,0,0,0.625,0,0)">
<stop offset="0" style="stop-color:rgb(0%,0%,0%);stop-opacity:1;"/>
<stop offset="0.179" style="stop-color:rgb(0%,0%,0%);stop-opacity:1;"/>
<stop offset="0.243" style="stop-color:rgb(0.784314%,4.705882%,33.333333%);stop-opacity:1;"/>
</linearGradient>
</defs>
<g id="surface1">
<path style=" stroke:none;fill-rule:nonzero;fill:url(#linear0);" d="M 26.511719 7.75 C 26.996094 7.265625 26.996094 6.484375 26.511719 6 L 24 3.488281 C 23.515625 3.003906 22.734375 3.003906 22.25 3.488281 L 15 10.738281 L 7.75 3.488281 C 7.265625 3.003906 6.484375 3.003906 6 3.488281 L 3.488281 6 C 3.003906 6.484375 3.003906 7.265625 3.488281 7.75 L 10.738281 15 L 3.488281 22.25 C 3.003906 22.734375 3.003906 23.515625 3.488281 24 L 6 26.511719 C 6.484375 26.996094 7.265625 26.996094 7.75 26.511719 Z M 26.511719 7.75 "/>
<path style=" stroke:none;fill-rule:nonzero;fill:url(#linear1);" d="M 15 19.261719 L 22.25 26.511719 C 22.734375 26.996094 23.515625 26.996094 24 26.511719 L 26.511719 24 C 26.996094 23.515625 26.996094 22.734375 26.511719 22.25 L 19.261719 15 Z M 15 19.261719 "/>
</g>
</svg>
